<svg width="33" height="33" viewBox="0 0 33 33" fill="none" xmlns="http://www.w3.org/2000/svg">
    <path d="M32.0045 23.5735C32.0045 29.3651 28.5518 32.8178 22.7601 32.8178H20.8667C19.9916 32.8178 19.2756 32.1018 19.2756 31.2267V22.046C19.2756 21.6164 19.6256 21.2505 20.0552 21.2505L22.8556 21.2027C23.0783 21.1868 23.2693 21.0277 23.317 20.805L23.8739 17.7659C23.9217 17.4795 23.6989 17.209 23.3966 17.209L20.0075 17.2568C19.562 17.2568 19.212 16.9067 19.196 16.4771L19.1324 12.5789C19.1324 12.3243 19.3392 12.1016 19.6097 12.1016L23.4284 12.0379C23.6988 12.0379 23.9057 11.8311 23.9057 11.5606L23.8421 7.7419C23.8421 7.47141 23.6352 7.26459 23.3647 7.26459L19.0687 7.32825C16.4275 7.37598 14.3272 9.53987 14.375 12.1811L14.4545 16.5567C14.4704 17.0022 14.1204 17.3522 13.6749 17.3682L11.7655 17.4C11.495 17.4 11.2882 17.6068 11.2882 17.8773L11.336 20.9004C11.336 21.1709 11.5428 21.3777 11.8133 21.3777L13.7226 21.3459C14.1681 21.3459 14.5181 21.696 14.5341 22.1256L14.6772 31.1949C14.6932 32.0859 13.9772 32.8178 13.0861 32.8178H9.4266C3.63496 32.8178 0.182251 29.3651 0.182251 23.5575V10.24C0.182251 4.44831 3.63496 0.995605 9.4266 0.995605H22.7601C28.5518 0.995605 32.0045 4.44831 32.0045 10.24V23.5735Z"
          fill="#fff"/>
</svg>
