<svg width="33" height="33" viewBox="0 0 33 33" fill="none" xmlns="http://www.w3.org/2000/svg">
<path d="M22.9466 0.995605H9.61313C3.82149 0.995605 0.368774 4.44832 0.368774 10.24V23.5576C0.368774 29.3651 3.82149 32.8178 9.61313 32.8178H22.9307C28.7224 32.8178 32.1751 29.3651 32.1751 23.5735V10.24C32.191 4.44832 28.7383 0.995605 22.9466 0.995605ZM16.2799 23.0802C12.8749 23.0802 10.1064 20.3117 10.1064 16.9067C10.1064 13.5017 12.8749 10.7332 16.2799 10.7332C19.6849 10.7332 22.4534 13.5017 22.4534 16.9067C22.4534 20.3117 19.6849 23.0802 16.2799 23.0802ZM25.6993 8.76023C25.6197 8.95116 25.5083 9.12618 25.3651 9.28529C25.206 9.42849 25.031 9.53987 24.8401 9.61943C24.6491 9.69898 24.4423 9.74672 24.2354 9.74672C23.8058 9.74672 23.4081 9.58761 23.1058 9.28529C22.9626 9.12618 22.8512 8.95116 22.7716 8.76023C22.6921 8.56929 22.6443 8.36245 22.6443 8.15561C22.6443 7.94876 22.6921 7.74192 22.7716 7.55098C22.8512 7.34414 22.9626 7.18503 23.1058 7.02592C23.4717 6.65996 24.0286 6.48494 24.5378 6.59632C24.6491 6.61223 24.7446 6.64405 24.8401 6.69178C24.9355 6.72361 25.031 6.77134 25.1265 6.83498C25.206 6.88272 25.2856 6.96227 25.3651 7.02592C25.5083 7.18503 25.6197 7.34414 25.6993 7.55098C25.7788 7.74192 25.8266 7.94876 25.8266 8.15561C25.8266 8.36245 25.7788 8.56929 25.6993 8.76023Z" fill="#0151AE"/>
</svg>
