<svg width="33" height="33" viewBox="0 0 33 33" fill="none" xmlns="http://www.w3.org/2000/svg">
<path d="M30.1306 0.995584H3.17719C2.87421 0.991376 2.57336 1.04689 2.29184 1.15897C2.01032 1.27104 1.75363 1.43747 1.53643 1.64875C1.31924 1.86004 1.14579 2.11204 1.026 2.39037C0.906201 2.66869 0.842407 2.96789 0.838257 3.27087V30.5425C0.842407 30.8455 0.906201 31.1447 1.026 31.423C1.14579 31.7013 1.31924 31.9533 1.53643 32.1646C1.75363 32.3759 2.01032 32.5424 2.29184 32.6544C2.57336 32.7665 2.87421 32.822 3.17719 32.8178H30.1306C30.4336 32.822 30.7344 32.7665 31.016 32.6544C31.2975 32.5424 31.5542 32.3759 31.7714 32.1646C31.9886 31.9533 32.162 31.7013 32.2818 31.423C32.4016 31.1447 32.4654 30.8455 32.4695 30.5425V3.27087C32.4654 2.96789 32.4016 2.66869 32.2818 2.39037C32.162 2.11204 31.9886 1.86004 31.7714 1.64875C31.5542 1.43747 31.2975 1.27104 31.016 1.15897C30.7344 1.04689 30.4336 0.991376 30.1306 0.995584ZM10.4327 27.6308H5.65932V13.3108H10.4327V27.6308ZM8.04599 11.306C7.38769 11.306 6.75635 11.0445 6.29086 10.579C5.82537 10.1135 5.56386 9.48215 5.56386 8.82385C5.56386 8.16555 5.82537 7.53421 6.29086 7.06872C6.75635 6.60323 7.38769 6.34172 8.04599 6.34172C8.39555 6.30207 8.74954 6.33671 9.08479 6.44336C9.42003 6.55001 9.72897 6.72627 9.99137 6.9606C10.2538 7.19492 10.4637 7.48203 10.6075 7.80312C10.7512 8.12422 10.8255 8.47205 10.8255 8.82385C10.8255 9.17565 10.7512 9.52348 10.6075 9.84458C10.4637 10.1657 10.2538 10.4528 9.99137 10.6871C9.72897 10.9214 9.42003 11.0977 9.08479 11.2043C8.74954 11.311 8.39555 11.3456 8.04599 11.306ZM27.6485 27.6308H22.8751V19.9457C22.8751 18.0205 22.191 16.7635 20.4567 16.7635C19.9199 16.7674 19.3973 16.9358 18.9592 17.2459C18.521 17.556 18.1885 17.9929 18.0063 18.4978C17.8818 18.8718 17.8279 19.2656 17.8472 19.6593V27.6149H13.0739C13.0739 27.6149 13.0739 14.5996 13.0739 13.2949H17.8472V15.3156C18.2809 14.5632 18.9115 13.9433 19.6713 13.5227C20.4312 13.1022 21.2913 12.8969 22.1591 12.9289C25.3414 12.9289 27.6485 14.9815 27.6485 19.3888V27.6308Z" fill="#0151AE"/>
</svg>
