<svg width="33" height="28" viewBox="0 0 33 28" fill="none" xmlns="http://www.w3.org/2000/svg">
<path fill-rule="evenodd" clip-rule="evenodd" d="M32.3775 4.0763C31.5552 5.17266 30.5612 6.12903 29.434 6.90848C29.434 7.19488 29.434 7.48128 29.434 7.78359C29.4384 10.3583 28.9306 12.9083 27.9401 15.2849C26.9496 17.6615 25.4962 19.8173 23.6645 21.6268C21.8328 23.4363 19.6594 24.8633 17.2709 25.8248C14.8823 26.7862 12.3264 27.2628 9.75191 27.227C6.74539 27.237 3.77737 26.5508 1.08035 25.2222C1.0092 25.1911 0.948685 25.1399 0.906276 25.0749C0.863866 25.0099 0.841413 24.9338 0.841683 24.8562V24.6812C0.841683 24.5715 0.885268 24.4662 0.96285 24.3887C1.04043 24.3111 1.14566 24.2675 1.25537 24.2675C4.21071 24.1701 7.06061 23.146 9.40186 21.3399C8.09111 21.3135 6.81453 20.9171 5.71939 20.1964C4.62425 19.4756 3.75518 18.46 3.21244 17.2666C3.18493 17.2012 3.17471 17.1298 3.18276 17.0593C3.19081 16.9888 3.21686 16.9216 3.25841 16.864C3.29995 16.8065 3.3556 16.7606 3.42 16.7308C3.4844 16.701 3.55538 16.6883 3.62613 16.6938C4.43912 16.7755 5.26023 16.6999 6.04462 16.4711C4.60542 16.1724 3.29826 15.4244 2.31167 14.3349C1.32508 13.2453 0.710048 11.8706 0.555283 10.4089C0.549734 10.3382 0.562476 10.2672 0.592284 10.2028C0.622093 10.1384 0.667966 10.0827 0.725494 10.0412C0.783022 9.99965 0.850271 9.9736 0.920775 9.96555C0.99128 9.9575 1.06267 9.96772 1.12808 9.99523C1.92053 10.3447 2.77597 10.5288 3.64204 10.5362C2.38383 9.71077 1.43445 8.49184 0.942207 7.06982C0.449969 5.64779 0.442595 4.10278 0.921239 2.67612C0.971185 2.53598 1.05666 2.41121 1.16931 2.31402C1.28195 2.21684 1.41791 2.15056 1.56385 2.1217C1.7098 2.09283 1.86074 2.10235 2.00191 2.14933C2.14307 2.19632 2.26961 2.27915 2.36915 2.38972C5.86081 6.10413 10.6584 8.31754 15.7504 8.56323C15.62 8.04303 15.5558 7.50842 15.5595 6.97212C15.5827 5.59716 16.0142 4.26013 16.7989 3.13086C17.5836 2.00158 18.6863 1.13101 19.9668 0.629712C21.2473 0.128412 22.648 0.0190003 23.9908 0.315374C25.3337 0.611748 26.5581 1.30053 27.5087 2.29425C28.8339 2.04192 30.1151 1.59699 31.3115 0.973632C31.3544 0.946827 31.404 0.932617 31.4547 0.932617C31.5053 0.932617 31.5549 0.946827 31.5979 0.973632C31.6247 1.01659 31.6389 1.0662 31.6389 1.11683C31.6389 1.16746 31.6247 1.21708 31.5979 1.26003C31.0184 2.58639 30.0394 3.69884 28.7975 4.44225C29.885 4.3162 30.9534 4.05978 31.9797 3.67852C32.022 3.64979 32.0719 3.63443 32.1229 3.63443C32.174 3.63443 32.2239 3.64979 32.2661 3.67852C32.3019 3.69488 32.3337 3.71883 32.3592 3.74872C32.3848 3.77861 32.4035 3.8137 32.4141 3.85157C32.4247 3.88944 32.4269 3.92916 32.4206 3.96797C32.4143 4.00678 32.3996 4.04375 32.3775 4.0763Z" fill="#0151AE"/>
</svg>
